<svg xmlns="http://www.w3.org/2000/svg" width="1000" height="340" viewBox="0 0 1000 340" role="img" aria-labelledby="title desc">
<title id="title">Four months of GitHub activity</title>
<desc id="desc">Daily GitHub contributions from 2026-06-08 through 2026-10-08. 253 contributions. Horizontal axis: date. Vertical axis: contributions per day.</desc>
<rect width="1000" height="340" rx="12" fill="#0d0d0d"/>
<g font-family="Segoe UI, Arial, sans-serif">
<path d="M65 275H950" stroke="#292929"/><text x="51" y="279" text-anchor="end" fill="#a3a3a3" font-size="12">0</text>
<path d="M65 211.25H950" stroke="#292929"/><text x="51" y="215.25" text-anchor="end" fill="#a3a3a3" font-size="12">4</text>
<path d="M65 147.5H950" stroke="#292929"/><text x="51" y="151.5" text-anchor="end" fill="#a3a3a3" font-size="12">8</text>
<path d="M65 83.75H950" stroke="#292929"/><text x="51" y="87.75" text-anchor="end" fill="#a3a3a3" font-size="12">12</text>
<path d="M65 20H950" stroke="#292929"/><text x="51" y="24" text-anchor="end" fill="#a3a3a3" font-size="12">16</text>
<polygon points="65,275 65.00,275.00 72.25,275.00 79.51,259.06 86.76,243.13 94.02,259.06 101.27,259.06 108.52,259.06 115.78,259.06 123.03,275.00 130.29,275.00 137.54,243.13 144.80,275.00 152.05,35.94 159.30,227.19 166.56,275.00 173.81,259.06 181.07,275.00 188.32,275.00 195.57,259.06 202.83,275.00 210.08,275.00 217.34,243.13 224.59,275.00 231.84,227.19 239.10,275.00 246.35,275.00 253.61,227.19 260.86,35.94 268.11,227.19 275.37,179.38 282.62,227.19 289.88,131.56 297.13,275.00 304.39,275.00 311.64,275.00 318.89,275.00 326.15,195.31 333.40,275.00 340.66,275.00 347.91,275.00 355.16,275.00 362.42,227.19 369.67,275.00 376.93,275.00 384.18,275.00 391.43,275.00 398.69,275.00 405.94,275.00 413.20,275.00 420.45,227.19 427.70,259.06 434.96,243.13 442.21,275.00 449.47,259.06 456.72,275.00 463.98,195.31 471.23,259.06 478.48,275.00 485.74,275.00 492.99,259.06 500.25,179.38 507.50,275.00 514.75,275.00 522.01,275.00 529.26,259.06 536.52,259.06 543.77,259.06 551.02,259.06 558.28,211.25 565.53,259.06 572.79,259.06 580.04,259.06 587.30,243.13 594.55,243.13 601.80,259.06 609.06,243.13 616.31,243.13 623.57,243.13 630.82,211.25 638.07,195.31 645.33,179.38 652.58,195.31 659.84,211.25 667.09,275.00 674.34,259.06 681.60,243.13 688.85,259.06 696.11,259.06 703.36,259.06 710.61,259.06 717.87,243.13 725.12,259.06 732.38,259.06 739.63,259.06 746.89,163.44 754.14,259.06 761.39,259.06 768.65,243.13 775.90,259.06 783.16,147.50 790.41,115.63 797.66,259.06 804.92,243.13 812.17,259.06 819.43,259.06 826.68,259.06 833.93,259.06 841.19,51.88 848.44,227.19 855.70,243.13 862.95,195.31 870.20,179.38 877.46,131.56 884.71,259.06 891.97,275.00 899.22,275.00 906.48,211.25 913.73,275.00 920.98,131.56 928.24,243.13 935.49,275.00 942.75,259.06 950.00,259.06 950,275" fill="#facc15" opacity="0.08"/>
<polyline points="65.00,275.00 72.25,275.00 79.51,259.06 86.76,243.13 94.02,259.06 101.27,259.06 108.52,259.06 115.78,259.06 123.03,275.00 130.29,275.00 137.54,243.13 144.80,275.00 152.05,35.94 159.30,227.19 166.56,275.00 173.81,259.06 181.07,275.00 188.32,275.00 195.57,259.06 202.83,275.00 210.08,275.00 217.34,243.13 224.59,275.00 231.84,227.19 239.10,275.00 246.35,275.00 253.61,227.19 260.86,35.94 268.11,227.19 275.37,179.38 282.62,227.19 289.88,131.56 297.13,275.00 304.39,275.00 311.64,275.00 318.89,275.00 326.15,195.31 333.40,275.00 340.66,275.00 347.91,275.00 355.16,275.00 362.42,227.19 369.67,275.00 376.93,275.00 384.18,275.00 391.43,275.00 398.69,275.00 405.94,275.00 413.20,275.00 420.45,227.19 427.70,259.06 434.96,243.13 442.21,275.00 449.47,259.06 456.72,275.00 463.98,195.31 471.23,259.06 478.48,275.00 485.74,275.00 492.99,259.06 500.25,179.38 507.50,275.00 514.75,275.00 522.01,275.00 529.26,259.06 536.52,259.06 543.77,259.06 551.02,259.06 558.28,211.25 565.53,259.06 572.79,259.06 580.04,259.06 587.30,243.13 594.55,243.13 601.80,259.06 609.06,243.13 616.31,243.13 623.57,243.13 630.82,211.25 638.07,195.31 645.33,179.38 652.58,195.31 659.84,211.25 667.09,275.00 674.34,259.06 681.60,243.13 688.85,259.06 696.11,259.06 703.36,259.06 710.61,259.06 717.87,243.13 725.12,259.06 732.38,259.06 739.63,259.06 746.89,163.44 754.14,259.06 761.39,259.06 768.65,243.13 775.90,259.06 783.16,147.50 790.41,115.63 797.66,259.06 804.92,243.13 812.17,259.06 819.43,259.06 826.68,259.06 833.93,259.06 841.19,51.88 848.44,227.19 855.70,243.13 862.95,195.31 870.20,179.38 877.46,131.56 884.71,259.06 891.97,275.00 899.22,275.00 906.48,211.25 913.73,275.00 920.98,131.56 928.24,243.13 935.49,275.00 942.75,259.06 950.00,259.06" fill="none" stroke="#facc15" stroke-width="1.8" stroke-linejoin="round"/>
<circle cx="79.51" cy="259.06" r="2" fill="#fde047"><title>2026-06-10: 1 contributions</title></circle>
<circle cx="86.76" cy="243.13" r="2" fill="#fde047"><title>2026-06-11: 2 contributions</title></circle>
<circle cx="94.02" cy="259.06" r="2" fill="#fde047"><title>2026-06-12: 1 contributions</title></circle>
<circle cx="101.27" cy="259.06" r="2" fill="#fde047"><title>2026-06-13: 1 contributions</title></circle>
<circle cx="108.52" cy="259.06" r="2" fill="#fde047"><title>2026-06-14: 1 contributions</title></circle>
<circle cx="115.78" cy="259.06" r="2" fill="#fde047"><title>2026-06-15: 1 contributions</title></circle>
<circle cx="137.54" cy="243.13" r="2" fill="#fde047"><title>2026-06-18: 2 contributions</title></circle>
<circle cx="152.05" cy="35.94" r="2" fill="#fde047"><title>2026-06-20: 15 contributions</title></circle>
<circle cx="159.30" cy="227.19" r="2" fill="#fde047"><title>2026-06-21: 3 contributions</title></circle>
<circle cx="173.81" cy="259.06" r="2" fill="#fde047"><title>2026-06-23: 1 contributions</title></circle>
<circle cx="195.57" cy="259.06" r="2" fill="#fde047"><title>2026-06-26: 1 contributions</title></circle>
<circle cx="217.34" cy="243.13" r="2" fill="#fde047"><title>2026-06-29: 2 contributions</title></circle>
<circle cx="231.84" cy="227.19" r="2" fill="#fde047"><title>2026-07-01: 3 contributions</title></circle>
<circle cx="253.61" cy="227.19" r="2" fill="#fde047"><title>2026-07-04: 3 contributions</title></circle>
<circle cx="260.86" cy="35.94" r="2" fill="#fde047"><title>2026-07-05: 15 contributions</title></circle>
<circle cx="268.11" cy="227.19" r="2" fill="#fde047"><title>2026-07-06: 3 contributions</title></circle>
<circle cx="275.37" cy="179.38" r="2" fill="#fde047"><title>2026-07-07: 6 contributions</title></circle>
<circle cx="282.62" cy="227.19" r="2" fill="#fde047"><title>2026-07-08: 3 contributions</title></circle>
<circle cx="289.88" cy="131.56" r="2" fill="#fde047"><title>2026-07-09: 9 contributions</title></circle>
<circle cx="326.15" cy="195.31" r="2" fill="#fde047"><title>2026-07-14: 5 contributions</title></circle>
<circle cx="362.42" cy="227.19" r="2" fill="#fde047"><title>2026-07-19: 3 contributions</title></circle>
<circle cx="420.45" cy="227.19" r="2" fill="#fde047"><title>2026-07-27: 3 contributions</title></circle>
<circle cx="427.70" cy="259.06" r="2" fill="#fde047"><title>2026-07-28: 1 contributions</title></circle>
<circle cx="434.96" cy="243.13" r="2" fill="#fde047"><title>2026-07-29: 2 contributions</title></circle>
<circle cx="449.47" cy="259.06" r="2" fill="#fde047"><title>2026-07-31: 1 contributions</title></circle>
<circle cx="463.98" cy="195.31" r="2" fill="#fde047"><title>2026-08-02: 5 contributions</title></circle>
<circle cx="471.23" cy="259.06" r="2" fill="#fde047"><title>2026-08-03: 1 contributions</title></circle>
<circle cx="492.99" cy="259.06" r="2" fill="#fde047"><title>2026-08-06: 1 contributions</title></circle>
<circle cx="500.25" cy="179.38" r="2" fill="#fde047"><title>2026-08-07: 6 contributions</title></circle>
<circle cx="529.26" cy="259.06" r="2" fill="#fde047"><title>2026-08-11: 1 contributions</title></circle>
<circle cx="536.52" cy="259.06" r="2" fill="#fde047"><title>2026-08-12: 1 contributions</title></circle>
<circle cx="543.77" cy="259.06" r="2" fill="#fde047"><title>2026-08-13: 1 contributions</title></circle>
<circle cx="551.02" cy="259.06" r="2" fill="#fde047"><title>2026-08-14: 1 contributions</title></circle>
<circle cx="558.28" cy="211.25" r="2" fill="#fde047"><title>2026-08-15: 4 contributions</title></circle>
<circle cx="565.53" cy="259.06" r="2" fill="#fde047"><title>2026-08-16: 1 contributions</title></circle>
<circle cx="572.79" cy="259.06" r="2" fill="#fde047"><title>2026-08-17: 1 contributions</title></circle>
<circle cx="580.04" cy="259.06" r="2" fill="#fde047"><title>2026-08-18: 1 contributions</title></circle>
<circle cx="587.30" cy="243.13" r="2" fill="#fde047"><title>2026-08-19: 2 contributions</title></circle>
<circle cx="594.55" cy="243.13" r="2" fill="#fde047"><title>2026-08-20: 2 contributions</title></circle>
<circle cx="601.80" cy="259.06" r="2" fill="#fde047"><title>2026-08-21: 1 contributions</title></circle>
<circle cx="609.06" cy="243.13" r="2" fill="#fde047"><title>2026-08-22: 2 contributions</title></circle>
<circle cx="616.31" cy="243.13" r="2" fill="#fde047"><title>2026-08-23: 2 contributions</title></circle>
<circle cx="623.57" cy="243.13" r="2" fill="#fde047"><title>2026-08-24: 2 contributions</title></circle>
<circle cx="630.82" cy="211.25" r="2" fill="#fde047"><title>2026-08-25: 4 contributions</title></circle>
<circle cx="638.07" cy="195.31" r="2" fill="#fde047"><title>2026-08-26: 5 contributions</title></circle>
<circle cx="645.33" cy="179.38" r="2" fill="#fde047"><title>2026-08-27: 6 contributions</title></circle>
<circle cx="652.58" cy="195.31" r="2" fill="#fde047"><title>2026-08-28: 5 contributions</title></circle>
<circle cx="659.84" cy="211.25" r="2" fill="#fde047"><title>2026-08-29: 4 contributions</title></circle>
<circle cx="674.34" cy="259.06" r="2" fill="#fde047"><title>2026-08-31: 1 contributions</title></circle>
<circle cx="681.60" cy="243.13" r="2" fill="#fde047"><title>2026-09-01: 2 contributions</title></circle>
<circle cx="688.85" cy="259.06" r="2" fill="#fde047"><title>2026-09-02: 1 contributions</title></circle>
<circle cx="696.11" cy="259.06" r="2" fill="#fde047"><title>2026-09-03: 1 contributions</title></circle>
<circle cx="703.36" cy="259.06" r="2" fill="#fde047"><title>2026-09-04: 1 contributions</title></circle>
<circle cx="710.61" cy="259.06" r="2" fill="#fde047"><title>2026-09-05: 1 contributions</title></circle>
<circle cx="717.87" cy="243.13" r="2" fill="#fde047"><title>2026-09-06: 2 contributions</title></circle>
<circle cx="725.12" cy="259.06" r="2" fill="#fde047"><title>2026-09-07: 1 contributions</title></circle>
<circle cx="732.38" cy="259.06" r="2" fill="#fde047"><title>2026-09-08: 1 contributions</title></circle>
<circle cx="739.63" cy="259.06" r="2" fill="#fde047"><title>2026-09-09: 1 contributions</title></circle>
<circle cx="746.89" cy="163.44" r="2" fill="#fde047"><title>2026-09-10: 7 contributions</title></circle>
<circle cx="754.14" cy="259.06" r="2" fill="#fde047"><title>2026-09-11: 1 contributions</title></circle>
<circle cx="761.39" cy="259.06" r="2" fill="#fde047"><title>2026-09-12: 1 contributions</title></circle>
<circle cx="768.65" cy="243.13" r="2" fill="#fde047"><title>2026-09-13: 2 contributions</title></circle>
<circle cx="775.90" cy="259.06" r="2" fill="#fde047"><title>2026-09-14: 1 contributions</title></circle>
<circle cx="783.16" cy="147.50" r="2" fill="#fde047"><title>2026-09-15: 8 contributions</title></circle>
<circle cx="790.41" cy="115.63" r="2" fill="#fde047"><title>2026-09-16: 10 contributions</title></circle>
<circle cx="797.66" cy="259.06" r="2" fill="#fde047"><title>2026-09-17: 1 contributions</title></circle>
<circle cx="804.92" cy="243.13" r="2" fill="#fde047"><title>2026-09-18: 2 contributions</title></circle>
<circle cx="812.17" cy="259.06" r="2" fill="#fde047"><title>2026-09-19: 1 contributions</title></circle>
<circle cx="819.43" cy="259.06" r="2" fill="#fde047"><title>2026-09-20: 1 contributions</title></circle>
<circle cx="826.68" cy="259.06" r="2" fill="#fde047"><title>2026-09-21: 1 contributions</title></circle>
<circle cx="833.93" cy="259.06" r="2" fill="#fde047"><title>2026-09-22: 1 contributions</title></circle>
<circle cx="841.19" cy="51.88" r="2" fill="#fde047"><title>2026-09-23: 14 contributions</title></circle>
<circle cx="848.44" cy="227.19" r="2" fill="#fde047"><title>2026-09-24: 3 contributions</title></circle>
<circle cx="855.70" cy="243.13" r="2" fill="#fde047"><title>2026-09-25: 2 contributions</title></circle>
<circle cx="862.95" cy="195.31" r="2" fill="#fde047"><title>2026-09-26: 5 contributions</title></circle>
<circle cx="870.20" cy="179.38" r="2" fill="#fde047"><title>2026-09-27: 6 contributions</title></circle>
<circle cx="877.46" cy="131.56" r="2" fill="#fde047"><title>2026-09-28: 9 contributions</title></circle>
<circle cx="884.71" cy="259.06" r="2" fill="#fde047"><title>2026-09-29: 1 contributions</title></circle>
<circle cx="906.48" cy="211.25" r="2" fill="#fde047"><title>2026-10-02: 4 contributions</title></circle>
<circle cx="920.98" cy="131.56" r="2" fill="#fde047"><title>2026-10-04: 9 contributions</title></circle>
<circle cx="928.24" cy="243.13" r="2" fill="#fde047"><title>2026-10-05: 2 contributions</title></circle>
<circle cx="942.75" cy="259.06" r="2" fill="#fde047"><title>2026-10-07: 1 contributions</title></circle>
<circle cx="950.00" cy="259.06" r="2" fill="#fde047"><title>2026-10-08: 1 contributions</title></circle>
<text x="65.00" y="300" text-anchor="middle" fill="#a3a3a3" font-size="12">Jun 8</text>
<text x="231.84" y="300" text-anchor="middle" fill="#a3a3a3" font-size="12">Jul</text>
<text x="456.72" y="300" text-anchor="middle" fill="#a3a3a3" font-size="12">Aug</text>
<text x="681.60" y="300" text-anchor="middle" fill="#a3a3a3" font-size="12">Sep</text>
<text x="899.22" y="300" text-anchor="middle" fill="#a3a3a3" font-size="12">Oct</text>
<text x="507" y="326" text-anchor="middle" fill="#a3a3a3" font-size="12">Date (UTC)</text>
<text transform="translate(18 147.5) rotate(-90)" text-anchor="middle" fill="#a3a3a3" font-size="12">Contributions / day</text>
</g>
</svg>
