<svg xmlns="http://www.w3.org/2000/svg" width="1000" height="340" viewBox="0 0 1000 340" role="img" aria-labelledby="title desc">
<title id="title">Four months of GitHub activity</title>
<desc id="desc">Daily GitHub contributions from 2026-06-06 through 2026-10-06. 269 contributions. Horizontal axis: date. Vertical axis: contributions per day.</desc>
<rect width="1000" height="340" rx="12" fill="#0d0d0d"/>
<g font-family="Segoe UI, Arial, sans-serif">
<path d="M65 275H950" stroke="#292929"/><text x="51" y="279" text-anchor="end" fill="#a3a3a3" font-size="12">0</text>
<path d="M65 211.25H950" stroke="#292929"/><text x="51" y="215.25" text-anchor="end" fill="#a3a3a3" font-size="12">5</text>
<path d="M65 147.5H950" stroke="#292929"/><text x="51" y="151.5" text-anchor="end" fill="#a3a3a3" font-size="12">10</text>
<path d="M65 83.75H950" stroke="#292929"/><text x="51" y="87.75" text-anchor="end" fill="#a3a3a3" font-size="12">15</text>
<path d="M65 20H950" stroke="#292929"/><text x="51" y="24" text-anchor="end" fill="#a3a3a3" font-size="12">20</text>
<polygon points="65,275 65.00,262.25 72.25,58.25 79.51,275.00 86.76,275.00 94.02,262.25 101.27,249.50 108.52,262.25 115.78,262.25 123.03,262.25 130.29,262.25 137.54,275.00 144.80,275.00 152.05,249.50 159.30,275.00 166.56,83.75 173.81,236.75 181.07,275.00 188.32,262.25 195.57,275.00 202.83,275.00 210.08,262.25 217.34,275.00 224.59,275.00 231.84,249.50 239.10,275.00 246.35,236.75 253.61,275.00 260.86,275.00 268.11,236.75 275.37,83.75 282.62,236.75 289.88,198.50 297.13,236.75 304.39,160.25 311.64,275.00 318.89,275.00 326.15,275.00 333.40,275.00 340.66,211.25 347.91,275.00 355.16,275.00 362.42,275.00 369.67,275.00 376.93,236.75 384.18,275.00 391.43,275.00 398.69,275.00 405.94,275.00 413.20,275.00 420.45,275.00 427.70,275.00 434.96,236.75 442.21,262.25 449.47,249.50 456.72,275.00 463.98,262.25 471.23,275.00 478.48,211.25 485.74,262.25 492.99,275.00 500.25,275.00 507.50,262.25 514.75,198.50 522.01,275.00 529.26,275.00 536.52,275.00 543.77,262.25 551.02,262.25 558.28,262.25 565.53,262.25 572.79,224.00 580.04,262.25 587.30,262.25 594.55,262.25 601.80,249.50 609.06,249.50 616.31,262.25 623.57,249.50 630.82,249.50 638.07,249.50 645.33,224.00 652.58,211.25 659.84,198.50 667.09,211.25 674.34,224.00 681.60,275.00 688.85,262.25 696.11,249.50 703.36,262.25 710.61,262.25 717.87,262.25 725.12,262.25 732.38,249.50 739.63,262.25 746.89,262.25 754.14,262.25 761.39,185.75 768.65,262.25 775.90,262.25 783.16,249.50 790.41,262.25 797.66,173.00 804.92,147.50 812.17,262.25 819.43,249.50 826.68,262.25 833.93,262.25 841.19,262.25 848.44,262.25 855.70,96.50 862.95,236.75 870.20,249.50 877.46,211.25 884.71,198.50 891.97,160.25 899.22,262.25 906.48,275.00 913.73,275.00 920.98,224.00 928.24,275.00 935.49,160.25 942.75,249.50 950.00,275.00 950,275" fill="#facc15" opacity="0.08"/>
<polyline points="65.00,262.25 72.25,58.25 79.51,275.00 86.76,275.00 94.02,262.25 101.27,249.50 108.52,262.25 115.78,262.25 123.03,262.25 130.29,262.25 137.54,275.00 144.80,275.00 152.05,249.50 159.30,275.00 166.56,83.75 173.81,236.75 181.07,275.00 188.32,262.25 195.57,275.00 202.83,275.00 210.08,262.25 217.34,275.00 224.59,275.00 231.84,249.50 239.10,275.00 246.35,236.75 253.61,275.00 260.86,275.00 268.11,236.75 275.37,83.75 282.62,236.75 289.88,198.50 297.13,236.75 304.39,160.25 311.64,275.00 318.89,275.00 326.15,275.00 333.40,275.00 340.66,211.25 347.91,275.00 355.16,275.00 362.42,275.00 369.67,275.00 376.93,236.75 384.18,275.00 391.43,275.00 398.69,275.00 405.94,275.00 413.20,275.00 420.45,275.00 427.70,275.00 434.96,236.75 442.21,262.25 449.47,249.50 456.72,275.00 463.98,262.25 471.23,275.00 478.48,211.25 485.74,262.25 492.99,275.00 500.25,275.00 507.50,262.25 514.75,198.50 522.01,275.00 529.26,275.00 536.52,275.00 543.77,262.25 551.02,262.25 558.28,262.25 565.53,262.25 572.79,224.00 580.04,262.25 587.30,262.25 594.55,262.25 601.80,249.50 609.06,249.50 616.31,262.25 623.57,249.50 630.82,249.50 638.07,249.50 645.33,224.00 652.58,211.25 659.84,198.50 667.09,211.25 674.34,224.00 681.60,275.00 688.85,262.25 696.11,249.50 703.36,262.25 710.61,262.25 717.87,262.25 725.12,262.25 732.38,249.50 739.63,262.25 746.89,262.25 754.14,262.25 761.39,185.75 768.65,262.25 775.90,262.25 783.16,249.50 790.41,262.25 797.66,173.00 804.92,147.50 812.17,262.25 819.43,249.50 826.68,262.25 833.93,262.25 841.19,262.25 848.44,262.25 855.70,96.50 862.95,236.75 870.20,249.50 877.46,211.25 884.71,198.50 891.97,160.25 899.22,262.25 906.48,275.00 913.73,275.00 920.98,224.00 928.24,275.00 935.49,160.25 942.75,249.50 950.00,275.00" fill="none" stroke="#facc15" stroke-width="1.8" stroke-linejoin="round"/>
<circle cx="65.00" cy="262.25" r="2" fill="#fde047"><title>2026-06-06: 1 contributions</title></circle>
<circle cx="72.25" cy="58.25" r="2" fill="#fde047"><title>2026-06-07: 17 contributions</title></circle>
<circle cx="94.02" cy="262.25" r="2" fill="#fde047"><title>2026-06-10: 1 contributions</title></circle>
<circle cx="101.27" cy="249.50" r="2" fill="#fde047"><title>2026-06-11: 2 contributions</title></circle>
<circle cx="108.52" cy="262.25" r="2" fill="#fde047"><title>2026-06-12: 1 contributions</title></circle>
<circle cx="115.78" cy="262.25" r="2" fill="#fde047"><title>2026-06-13: 1 contributions</title></circle>
<circle cx="123.03" cy="262.25" r="2" fill="#fde047"><title>2026-06-14: 1 contributions</title></circle>
<circle cx="130.29" cy="262.25" r="2" fill="#fde047"><title>2026-06-15: 1 contributions</title></circle>
<circle cx="152.05" cy="249.50" r="2" fill="#fde047"><title>2026-06-18: 2 contributions</title></circle>
<circle cx="166.56" cy="83.75" r="2" fill="#fde047"><title>2026-06-20: 15 contributions</title></circle>
<circle cx="173.81" cy="236.75" r="2" fill="#fde047"><title>2026-06-21: 3 contributions</title></circle>
<circle cx="188.32" cy="262.25" r="2" fill="#fde047"><title>2026-06-23: 1 contributions</title></circle>
<circle cx="210.08" cy="262.25" r="2" fill="#fde047"><title>2026-06-26: 1 contributions</title></circle>
<circle cx="231.84" cy="249.50" r="2" fill="#fde047"><title>2026-06-29: 2 contributions</title></circle>
<circle cx="246.35" cy="236.75" r="2" fill="#fde047"><title>2026-07-01: 3 contributions</title></circle>
<circle cx="268.11" cy="236.75" r="2" fill="#fde047"><title>2026-07-04: 3 contributions</title></circle>
<circle cx="275.37" cy="83.75" r="2" fill="#fde047"><title>2026-07-05: 15 contributions</title></circle>
<circle cx="282.62" cy="236.75" r="2" fill="#fde047"><title>2026-07-06: 3 contributions</title></circle>
<circle cx="289.88" cy="198.50" r="2" fill="#fde047"><title>2026-07-07: 6 contributions</title></circle>
<circle cx="297.13" cy="236.75" r="2" fill="#fde047"><title>2026-07-08: 3 contributions</title></circle>
<circle cx="304.39" cy="160.25" r="2" fill="#fde047"><title>2026-07-09: 9 contributions</title></circle>
<circle cx="340.66" cy="211.25" r="2" fill="#fde047"><title>2026-07-14: 5 contributions</title></circle>
<circle cx="376.93" cy="236.75" r="2" fill="#fde047"><title>2026-07-19: 3 contributions</title></circle>
<circle cx="434.96" cy="236.75" r="2" fill="#fde047"><title>2026-07-27: 3 contributions</title></circle>
<circle cx="442.21" cy="262.25" r="2" fill="#fde047"><title>2026-07-28: 1 contributions</title></circle>
<circle cx="449.47" cy="249.50" r="2" fill="#fde047"><title>2026-07-29: 2 contributions</title></circle>
<circle cx="463.98" cy="262.25" r="2" fill="#fde047"><title>2026-07-31: 1 contributions</title></circle>
<circle cx="478.48" cy="211.25" r="2" fill="#fde047"><title>2026-08-02: 5 contributions</title></circle>
<circle cx="485.74" cy="262.25" r="2" fill="#fde047"><title>2026-08-03: 1 contributions</title></circle>
<circle cx="507.50" cy="262.25" r="2" fill="#fde047"><title>2026-08-06: 1 contributions</title></circle>
<circle cx="514.75" cy="198.50" r="2" fill="#fde047"><title>2026-08-07: 6 contributions</title></circle>
<circle cx="543.77" cy="262.25" r="2" fill="#fde047"><title>2026-08-11: 1 contributions</title></circle>
<circle cx="551.02" cy="262.25" r="2" fill="#fde047"><title>2026-08-12: 1 contributions</title></circle>
<circle cx="558.28" cy="262.25" r="2" fill="#fde047"><title>2026-08-13: 1 contributions</title></circle>
<circle cx="565.53" cy="262.25" r="2" fill="#fde047"><title>2026-08-14: 1 contributions</title></circle>
<circle cx="572.79" cy="224.00" r="2" fill="#fde047"><title>2026-08-15: 4 contributions</title></circle>
<circle cx="580.04" cy="262.25" r="2" fill="#fde047"><title>2026-08-16: 1 contributions</title></circle>
<circle cx="587.30" cy="262.25" r="2" fill="#fde047"><title>2026-08-17: 1 contributions</title></circle>
<circle cx="594.55" cy="262.25" r="2" fill="#fde047"><title>2026-08-18: 1 contributions</title></circle>
<circle cx="601.80" cy="249.50" r="2" fill="#fde047"><title>2026-08-19: 2 contributions</title></circle>
<circle cx="609.06" cy="249.50" r="2" fill="#fde047"><title>2026-08-20: 2 contributions</title></circle>
<circle cx="616.31" cy="262.25" r="2" fill="#fde047"><title>2026-08-21: 1 contributions</title></circle>
<circle cx="623.57" cy="249.50" r="2" fill="#fde047"><title>2026-08-22: 2 contributions</title></circle>
<circle cx="630.82" cy="249.50" r="2" fill="#fde047"><title>2026-08-23: 2 contributions</title></circle>
<circle cx="638.07" cy="249.50" r="2" fill="#fde047"><title>2026-08-24: 2 contributions</title></circle>
<circle cx="645.33" cy="224.00" r="2" fill="#fde047"><title>2026-08-25: 4 contributions</title></circle>
<circle cx="652.58" cy="211.25" r="2" fill="#fde047"><title>2026-08-26: 5 contributions</title></circle>
<circle cx="659.84" cy="198.50" r="2" fill="#fde047"><title>2026-08-27: 6 contributions</title></circle>
<circle cx="667.09" cy="211.25" r="2" fill="#fde047"><title>2026-08-28: 5 contributions</title></circle>
<circle cx="674.34" cy="224.00" r="2" fill="#fde047"><title>2026-08-29: 4 contributions</title></circle>
<circle cx="688.85" cy="262.25" r="2" fill="#fde047"><title>2026-08-31: 1 contributions</title></circle>
<circle cx="696.11" cy="249.50" r="2" fill="#fde047"><title>2026-09-01: 2 contributions</title></circle>
<circle cx="703.36" cy="262.25" r="2" fill="#fde047"><title>2026-09-02: 1 contributions</title></circle>
<circle cx="710.61" cy="262.25" r="2" fill="#fde047"><title>2026-09-03: 1 contributions</title></circle>
<circle cx="717.87" cy="262.25" r="2" fill="#fde047"><title>2026-09-04: 1 contributions</title></circle>
<circle cx="725.12" cy="262.25" r="2" fill="#fde047"><title>2026-09-05: 1 contributions</title></circle>
<circle cx="732.38" cy="249.50" r="2" fill="#fde047"><title>2026-09-06: 2 contributions</title></circle>
<circle cx="739.63" cy="262.25" r="2" fill="#fde047"><title>2026-09-07: 1 contributions</title></circle>
<circle cx="746.89" cy="262.25" r="2" fill="#fde047"><title>2026-09-08: 1 contributions</title></circle>
<circle cx="754.14" cy="262.25" r="2" fill="#fde047"><title>2026-09-09: 1 contributions</title></circle>
<circle cx="761.39" cy="185.75" r="2" fill="#fde047"><title>2026-09-10: 7 contributions</title></circle>
<circle cx="768.65" cy="262.25" r="2" fill="#fde047"><title>2026-09-11: 1 contributions</title></circle>
<circle cx="775.90" cy="262.25" r="2" fill="#fde047"><title>2026-09-12: 1 contributions</title></circle>
<circle cx="783.16" cy="249.50" r="2" fill="#fde047"><title>2026-09-13: 2 contributions</title></circle>
<circle cx="790.41" cy="262.25" r="2" fill="#fde047"><title>2026-09-14: 1 contributions</title></circle>
<circle cx="797.66" cy="173.00" r="2" fill="#fde047"><title>2026-09-15: 8 contributions</title></circle>
<circle cx="804.92" cy="147.50" r="2" fill="#fde047"><title>2026-09-16: 10 contributions</title></circle>
<circle cx="812.17" cy="262.25" r="2" fill="#fde047"><title>2026-09-17: 1 contributions</title></circle>
<circle cx="819.43" cy="249.50" r="2" fill="#fde047"><title>2026-09-18: 2 contributions</title></circle>
<circle cx="826.68" cy="262.25" r="2" fill="#fde047"><title>2026-09-19: 1 contributions</title></circle>
<circle cx="833.93" cy="262.25" r="2" fill="#fde047"><title>2026-09-20: 1 contributions</title></circle>
<circle cx="841.19" cy="262.25" r="2" fill="#fde047"><title>2026-09-21: 1 contributions</title></circle>
<circle cx="848.44" cy="262.25" r="2" fill="#fde047"><title>2026-09-22: 1 contributions</title></circle>
<circle cx="855.70" cy="96.50" r="2" fill="#fde047"><title>2026-09-23: 14 contributions</title></circle>
<circle cx="862.95" cy="236.75" r="2" fill="#fde047"><title>2026-09-24: 3 contributions</title></circle>
<circle cx="870.20" cy="249.50" r="2" fill="#fde047"><title>2026-09-25: 2 contributions</title></circle>
<circle cx="877.46" cy="211.25" r="2" fill="#fde047"><title>2026-09-26: 5 contributions</title></circle>
<circle cx="884.71" cy="198.50" r="2" fill="#fde047"><title>2026-09-27: 6 contributions</title></circle>
<circle cx="891.97" cy="160.25" r="2" fill="#fde047"><title>2026-09-28: 9 contributions</title></circle>
<circle cx="899.22" cy="262.25" r="2" fill="#fde047"><title>2026-09-29: 1 contributions</title></circle>
<circle cx="920.98" cy="224.00" r="2" fill="#fde047"><title>2026-10-02: 4 contributions</title></circle>
<circle cx="935.49" cy="160.25" r="2" fill="#fde047"><title>2026-10-04: 9 contributions</title></circle>
<circle cx="942.75" cy="249.50" r="2" fill="#fde047"><title>2026-10-05: 2 contributions</title></circle>
<text x="65.00" y="300" text-anchor="middle" fill="#a3a3a3" font-size="12">Jun 6</text>
<text x="246.35" y="300" text-anchor="middle" fill="#a3a3a3" font-size="12">Jul</text>
<text x="471.23" y="300" text-anchor="middle" fill="#a3a3a3" font-size="12">Aug</text>
<text x="696.11" y="300" text-anchor="middle" fill="#a3a3a3" font-size="12">Sep</text>
<text x="913.73" y="300" text-anchor="middle" fill="#a3a3a3" font-size="12">Oct</text>
<text x="507" y="326" text-anchor="middle" fill="#a3a3a3" font-size="12">Date (UTC)</text>
<text transform="translate(18 147.5) rotate(-90)" text-anchor="middle" fill="#a3a3a3" font-size="12">Contributions / day</text>
</g>
</svg>
